<svg width="40" height="40" viewBox="0 0 40 40" fill="none" xmlns="http://www.w3.org/2000/svg">
<path d="M3.25 9.375H17.95V6.25H3.25C2.4212 6.25 1.62634 6.57924 1.04029 7.16529C0.45424 7.75134 0.125 8.5462 0.125 9.375V30.625C0.125 31.4538 0.45424 32.2487 1.04029 32.8347C1.62634 33.4208 2.4212 33.75 3.25 33.75H17.95V30.625H3.25V9.375Z" fill="#2192FF"/>
<path d="M38.5 17.4999L28.5 10.6499L26.725 13.1499L34.425 18.3999H11.775V21.5499H34.45L26.75 26.8249L28.525 29.3249L38.5 22.4999C38.8927 22.212 39.212 21.8356 39.4321 21.4013C39.6523 20.9669 39.767 20.4868 39.767 19.9999C39.767 19.513 39.6523 19.0329 39.4321 18.5985C39.212 18.1642 38.8927 17.7878 38.5 17.4999Z" fill="#2192FF"/>
</svg>
