<svg width="40" height="30" viewBox="0 0 40 30" fill="none" xmlns="http://www.w3.org/2000/svg">
<path d="M0 5C0 3.67392 0.526784 2.40215 1.46447 1.46447C2.40215 0.526784 3.67392 0 5 0H35C36.3261 0 37.5979 0.526784 38.5355 1.46447C39.4732 2.40215 40 3.67392 40 5V25C40 26.3261 39.4732 27.5979 38.5355 28.5355C37.5979 29.4732 36.3261 30 35 30H5C3.67392 30 2.40215 29.4732 1.46447 28.5355C0.526784 27.5979 0 26.3261 0 25V5ZM5 2.5C4.33696 2.5 3.70107 2.76339 3.23223 3.23223C2.76339 3.70107 2.5 4.33696 2.5 5V7.5H37.5V5C37.5 4.33696 37.2366 3.70107 36.7678 3.23223C36.2989 2.76339 35.663 2.5 35 2.5H5ZM37.5 12.5H2.5V25C2.5 25.663 2.76339 26.2989 3.23223 26.7678C3.70107 27.2366 4.33696 27.5 5 27.5H35C35.663 27.5 36.2989 27.2366 36.7678 26.7678C37.2366 26.2989 37.5 25.663 37.5 25V12.5Z" fill="white"/>
<path d="M20 19C20 18.337 20.2634 17.7011 20.7322 17.2322C21.2011 16.7634 21.837 16.5 22.5 16.5H25C25.663 16.5 26.2989 16.7634 26.7678 17.2322C27.2366 17.7011 27.5 18.337 27.5 19V21.5C27.5 22.163 27.2366 22.7989 26.7678 23.2678C26.2989 23.7366 25.663 24 25 24H22.5C21.837 24 21.2011 23.7366 20.7322 23.2678C20.2634 22.7989 20 22.163 20 21.5V19Z" fill="#A7C3BC"/>
</svg>
