<svg width="4" height="14" viewBox="0 0 4 14" fill="none" xmlns="http://www.w3.org/2000/svg">
<path d="M0 6.66667C0 7.10869 0.175595 7.53262 0.488156 7.84518C0.800716 8.15774 1.22464 8.33333 1.66667 8.33333C2.10869 8.33333 2.53262 8.15774 2.84518 7.84518C3.15774 7.53262 3.33333 7.10869 3.33333 6.66667C3.33333 6.22464 3.15774 5.80072 2.84518 5.48816C2.53262 5.17559 2.10869 5 1.66667 5C1.22464 5 0.800716 5.17559 0.488156 5.48816C0.175595 5.80072 0 6.22464 0 6.66667ZM0 1.66667C0 2.10869 0.175595 2.53262 0.488156 2.84518C0.800716 3.15774 1.22464 3.33333 1.66667 3.33333C2.10869 3.33333 2.53262 3.15774 2.84518 2.84518C3.15774 2.53262 3.33333 2.10869 3.33333 1.66667C3.33333 1.22464 3.15774 0.800716 2.84518 0.488155C2.53262 0.175595 2.10869 0 1.66667 0C1.22464 0 0.800716 0.175595 0.488156 0.488155C0.175595 0.800716 0 1.22464 0 1.66667ZM0 11.6667C0 12.1087 0.175595 12.5326 0.488156 12.8452C0.800716 13.1577 1.22464 13.3333 1.66667 13.3333C2.10869 13.3333 2.53262 13.1577 2.84518 12.8452C3.15774 12.5326 3.33333 12.1087 3.33333 11.6667C3.33333 11.2246 3.15774 10.8007 2.84518 10.4882C2.53262 10.1756 2.10869 10 1.66667 10C1.22464 10 0.800716 10.1756 0.488156 10.4882C0.175595 10.8007 0 11.2246 0 11.6667Z" fill="#A7C3BC"/>
</svg>
